<?xml version="1.0" encoding="UTF-8" standalone="no"?>
<!-- Created with Inkscape (http://www.inkscape.org/) -->

<svg
   version="1.1"
   id="svg3043"
   width="507.36008"
   height="498.86362"
   viewBox="0 0 507.36008 498.86362"
   sodipodi:docname="cv-logo.svg"
   inkscape:version="1.2-alpha1 (b6a15bb, 2022-02-23)"
   xmlns:inkscape="http://www.inkscape.org/namespaces/inkscape"
   xmlns:sodipodi="http://sodipodi.sourceforge.net/DTD/sodipodi-0.dtd"
   xmlns="http://www.w3.org/2000/svg"
   xmlns:svg="http://www.w3.org/2000/svg">
  <defs
     id="defs3047" />
  <sodipodi:namedview
     id="namedview3045"
     pagecolor="#505050"
     bordercolor="#ffffff"
     borderopacity="1"
     inkscape:pageshadow="0"
     inkscape:pageopacity="0"
     inkscape:pagecheckerboard="1"
     inkscape:deskcolor="#505050"
     showgrid="false"
     inkscape:zoom="0.4609375"
     inkscape:cx="148.61017"
     inkscape:cy="183.32203"
     inkscape:window-width="1309"
     inkscape:window-height="783"
     inkscape:window-x="0"
     inkscape:window-y="38"
     inkscape:window-maximized="0"
     inkscape:current-layer="g3049" />
  <g
     inkscape:groupmode="layer"
     inkscape:label="Image"
     id="g3049"
     transform="translate(-176.99023,-78.751401)">
    <path
       style="fill:#a11ec8;fill-opacity:1"
       d="m 414.47458,576.69045 c -35.16898,-2.18111 -66.18531,-10.49179 -98.5,-26.3926 C 242.80394,514.2934 193.83432,449.00686 179.30989,368.09582 c -2.02023,-11.25404 -2.30564,-16.09387 -2.3195,-39.33312 -0.0101,-17.02128 0.45508,-29.54034 1.30068,-35 4.05155,-26.15912 12.1198,-51.56539 23.81468,-74.9905 12.7842,-25.60705 25.82236,-43.7902 46.14793,-64.35836 20.62013,-20.86625 41.1064,-35.59076 67.7209,-48.67445 19.03467,-9.357444 31.12624,-13.920644 48.85671,-18.437894 44.70408,-11.38942 86.57705,-11.39988 131.14329,-0.0328 17.55222,4.47689 29.96315,9.16523 49,18.510204 65.70901,32.25578 114.05773,91.36715 131.98532,161.36585 4.90624,19.15653 6.59361,31.71129 7.22228,53.73688 0.62614,21.93656 -0.43184,35.52919 -4.27164,54.88105 -17.5112,88.25318 -82.28309,160.43455 -169.43596,188.81834 -21.30102,6.93728 -41.80881,10.71962 -66,12.17269 -9.075,0.5451 -16.725,0.92828 -17,0.85152 -0.275,-0.0768 -6.125,-0.48843 -13,-0.9148 z M 352.59359,442.26811 c 4.60954,-0.82203 13.33099,-2.96823 19.38099,-4.76934 l 11,-3.27475 0.26366,-32.73066 c 0.17934,-22.26259 -0.0706,-32.73066 -0.78138,-32.73066 -0.57478,0 -1.30302,0.67226 -1.61831,1.4939 -0.81267,2.11778 -11.81782,10.20162 -18.43729,13.54311 -8.2725,4.17595 -17.17231,6.17435 -27.42953,6.15917 -25.90128,-0.0384 -45.03946,-13.31229 -53.15631,-36.86835 -2.31956,-6.73163 -2.69728,-9.43828 -2.69728,-19.32783 0,-9.88632 0.38159,-12.62256 2.71947,-19.5 4.88946,-14.38359 14.44778,-25.82327 26.81098,-32.08818 7.50812,-3.80465 15.48318,-5.52303 25.82599,-5.5647 16.86568,-0.0679 30.26864,5.02245 42.15233,16.00929 l 6.87527,6.35641 -0.2638,-32.85125 -0.2638,-32.85126 -5.97062,-2.36872 c -3.28385,-1.3028 -10.25885,-3.52575 -15.5,-4.93989 -8.62243,-2.32645 -11.29011,-2.5708 -28.02938,-2.56743 -20.23682,0.004 -24.85312,0.81344 -41.70364,7.31169 -27.73863,10.69714 -52.05825,34.66196 -62.4066,61.49613 -6.42121,16.65074 -7.24854,21.36899 -7.28702,41.55791 -0.0397,20.84774 1.32204,28.57167 7.70189,43.68484 13.66528,32.37154 47.22327,57.98259 84.93022,64.81771 9.94959,1.80356 27.77911,1.8049 37.88416,0.003 z M 549.73763,418.5127 c 4.71926,-11.1375 24.98739,-58.6125 45.04028,-105.5 l 36.45981,-85.25 -30.13157,0.0137 -30.13157,0.0137 -25.42505,63.67756 c -19.4188,48.63478 -25.62409,63.21897 -26.26758,61.73631 -0.4634,-1.06771 -11.83989,-29.61627 -25.2811,-63.44127 l -24.43857,-61.5 -30.13211,-0.26479 c -18.68703,-0.16422 -30.00364,0.0955 -29.79385,0.68369 0.18604,0.52167 20.13781,48.00333 44.33726,105.5148 l 43.999,104.5663 h 21.59229 21.5923 z"
       id="path4310" />
  </g>
</svg>
