<?xml version="1.0" encoding="UTF-8" standalone="no"?>
<!-- Created with Inkscape (http://www.inkscape.org/) -->

<svg
   version="1.1"
   id="svg180"
   width="491.3334"
   height="350.62729"
   viewBox="0 0 491.3334 350.6273"
   sodipodi:docname="email-logo.svg"
   inkscape:version="1.2-alpha1 (b6a15bb, 2022-02-23)"
   xmlns:inkscape="http://www.inkscape.org/namespaces/inkscape"
   xmlns:sodipodi="http://sodipodi.sourceforge.net/DTD/sodipodi-0.dtd"
   xmlns="http://www.w3.org/2000/svg"
   xmlns:svg="http://www.w3.org/2000/svg">
  <defs
     id="defs184" />
  <sodipodi:namedview
     id="namedview182"
     pagecolor="#505050"
     bordercolor="#ffffff"
     borderopacity="1"
     inkscape:pageshadow="0"
     inkscape:pageopacity="0"
     inkscape:pagecheckerboard="1"
     inkscape:deskcolor="#505050"
     showgrid="false"
     inkscape:zoom="0.18024441"
     inkscape:cx="693.50278"
     inkscape:cy="183.08473"
     inkscape:window-width="1512"
     inkscape:window-height="916"
     inkscape:window-x="0"
     inkscape:window-y="38"
     inkscape:window-maximized="1"
     inkscape:current-layer="g186" />
  <g
     inkscape:groupmode="layer"
     inkscape:label="Image"
     id="g186"
     transform="translate(-318.77962,-468.90392)">
    <path
       style="fill:#000000;stroke-width:0.666667"
       d="m 344.44632,818.31062 c -6.1147,-1.7809 -14.723,-6.6956 -14.1899,-8.1013 0.2466,-0.6503 171.9461,-147.97426 172.9597,-148.4053 0.4235,-0.18004 14.2062,11.44378 30.6283,25.83072 16.4221,14.38694 30.189,26.15808 30.5932,26.15808 0.4042,0 14.1645,-11.77519 30.5785,-26.16708 16.414,-14.3919 30.2006,-26.00884 30.6369,-25.81542 0.4363,0.1934 25.0933,21.22728 54.7933,46.742 29.7,25.5146 68.2998,58.6066 85.7773,73.5376 17.4776,14.931 31.802,27.5973 31.8321,28.1473 0.1062,1.9419 -8.0589,6.636 -14.4019,8.2796 -3.6681,0.9505 -25.1898,1.0491 -219.6371,1.0063 -203.1347,-0.045 -215.8011,-0.1147 -219.5704,-1.2125 z m -25.6667,-172.6584 c 0,-79.97823 0.1918,-145.41497 0.4261,-145.41497 0.2343,0 2.2593,1.5913 4.5,3.53622 2.2407,1.94492 12.4739,10.84529 22.7406,19.7786 10.2667,8.9333 20.5962,17.91701 22.9546,19.96378 6.7169,5.82937 67.2483,58.45478 71.7121,62.34573 2.2,1.91767 6.4,5.58547 9.3333,8.15066 2.9333,2.56518 12.5333,10.90865 21.3333,18.54104 8.8,7.63238 16,14.11422 16,14.4041 0,0.28988 -2.25,2.44068 -5,4.77957 -2.75,2.33889 -18.2,15.46923 -34.3333,29.17854 -16.1333,13.70931 -35.3333,30.04843 -42.6667,36.30903 -7.3333,6.2607 -19.0333,16.2147 -26,22.1199 -6.9666,5.9053 -23.0392,19.547 -35.7167,30.3149 -12.6776,10.7679 -23.5526,19.9897 -24.1667,20.4929 -1.0437,0.8553 -1.1166,-8.5757 -1.1166,-144.5 z m 466.9957,124.8425 c -13.1976,-11.2251 -26.3957,-22.4357 -29.329,-24.9126 -39.2445,-33.1367 -115.3333,-98.1776 -115.3333,-98.58712 0,-0.29444 2.25,-2.50534 5,-4.91312 4.8679,-4.26212 31.0915,-27.08625 56,-48.7404 6.7833,-5.89709 16.8333,-14.64888 22.3333,-19.44844 5.5,-4.79955 22.9,-19.9453 38.6667,-33.65722 15.7666,-13.71192 32.5487,-28.32102 37.2935,-32.46467 4.7448,-4.14364 8.8698,-7.5339 9.1667,-7.5339 0.2969,0 0.5398,65.40001 0.5398,145.33334 0,79.93333 -0.077,145.33333 -0.171,145.33333 -0.094,0 -10.969,-9.1841 -24.1667,-20.4092 z M 507.77962,630.80677 c -30.8,-26.44318 -83.15,-71.34607 -116.3333,-99.78422 -33.1833,-28.43813 -60.5463,-52.0219 -60.8067,-52.40837 -1.0194,-1.51341 7.3244,-6.62553 14.0944,-8.6353 3.2983,-0.97918 22.8758,-1.07496 219.7123,-1.07496 196.7852,0 216.4148,0.096 219.7123,1.07435 6.4882,1.92504 15.0793,6.97813 14.2221,8.3651 -0.2122,0.34344 -16.1843,14.17543 -35.4935,30.73776 -87.3422,74.91727 -185.6584,159.26005 -191.3314,164.13794 -3.4231,2.94333 -6.5731,5.42233 -7,5.50887 -0.4269,0.0865 -25.9762,-21.47799 -56.7762,-47.92117 z"
       id="path872" />
  </g>
</svg>
