<?xml version="1.0" encoding="UTF-8" standalone="no"?>
<!-- Created with Inkscape (http://www.inkscape.org/) -->

<svg
   width="59.266666mm"
   height="59.53125mm"
   viewBox="0 0 59.266666 59.53125"
   version="1.1"
   id="svg5"
   xmlns:inkscape="http://www.inkscape.org/namespaces/inkscape"
   xmlns:sodipodi="http://sodipodi.sourceforge.net/DTD/sodipodi-0.dtd"
   xmlns="http://www.w3.org/2000/svg"
   xmlns:svg="http://www.w3.org/2000/svg">
  <sodipodi:namedview
     id="namedview7"
     pagecolor="#505050"
     bordercolor="#ffffff"
     borderopacity="1"
     inkscape:pageshadow="0"
     inkscape:pageopacity="0"
     inkscape:pagecheckerboard="1"
     inkscape:deskcolor="#505050"
     inkscape:document-units="mm"
     showgrid="false" />
  <defs
     id="defs2" />
  <g
     inkscape:label="Layer 1"
     inkscape:groupmode="layer"
     id="layer1"
     transform="translate(-105,-37.094757)">
    <rect
       style="opacity:0.943574;fill:#1a2249;fill-opacity:1;stroke-width:13.0207"
       id="rect4931"
       width="59.266666"
       height="59.53125"
       x="105"
       y="37.094757" />
    <path
       id="rect3119"
       style="opacity:0.943574;fill:#ffffff;stroke-width:15"
       d="m 121.6856,44.330111 c -2.66317,-0.05939 -5.04644,1.389481 -6.63112,4.112927 -0.83152,1.429048 -0.89906,4.817876 -0.12403,6.219259 0.82568,1.492973 2.28241,2.929313 3.60547,3.554305 1.6788,0.793034 4.42378,0.835796 5.9061,0.09198 1.8346,-0.920595 2.65625,-1.696 3.52691,-3.329513 0.70059,-1.314452 0.84336,-1.875898 0.84336,-3.308842 0,-3.248697 -2.20115,-6.210067 -5.24464,-7.055383 -0.63799,-0.177199 -1.26748,-0.271033 -1.88205,-0.284737 z m 0.51211,0.530717 0.7276,0.175183 c 1.95065,0.46883 3.69512,1.83577 4.59611,3.601847 l 0.50797,0.995805 h -1.46037 c -0.80332,0 -1.46089,0.119063 -1.46089,0.264583 0,0.145521 0.65296,0.264584 1.45055,0.264584 1.35652,0 1.46188,0.04639 1.63039,0.717785 0.26124,1.040871 -0.2879,3.304853 -1.09864,4.529956 -0.84384,1.275126 -2.36353,2.329773 -3.83232,2.659786 l -1.07952,0.242363 0.076,-2.421558 0.0755,-2.421041 1.52135,-0.07958 c 2.01558,-0.105127 1.96134,-0.581877 -0.0661,-0.581877 h -1.5875 v -3.973918 z m -1.32292,0.06614 v 2.353345 2.353345 h -1.43919 c -0.79178,0 -1.51358,0.119063 -1.60352,0.264583 -0.10214,0.165269 0.43835,0.264584 1.43971,0.264584 h 1.603 v 1.322916 1.322917 h -1.45521 c -0.80036,0 -1.4552,0.119062 -1.4552,0.264583 0,0.145521 0.65484,0.264584 1.4552,0.264584 h 1.45521 v 2.513541 c 0,1.382446 -0.0298,2.501048 -0.0661,2.486153 -0.0364,-0.0149 -0.42282,-0.113503 -0.85938,-0.219108 h -5.2e-4 c -3.03124,-0.733259 -5.58416,-4.41694 -5.04672,-7.281726 0.0964,-0.513936 0.14201,-0.964948 0.10129,-1.002523 -0.13225,-0.122029 1.17482,-2.164601 1.87895,-2.936254 0.791,-0.866844 1.90424,-1.498434 3.13263,-1.776636 z m 5.22707,15.581478 c -0.42624,-0.0022 -0.89409,-7.81e-4 -1.38441,0.0041 l -3.56619,0.03566 -0.68833,0.902787 c -1.07173,1.405114 -2.13642,4.001473 -2.51147,6.124174 -0.27958,1.582376 -0.27988,2.256725 5.1e-4,3.704167 0.69778,3.601791 2.92825,7.148684 5.66942,9.016504 1.20021,0.817811 4.3759,2.176169 4.79403,2.050521 0.14552,-0.04373 0.29929,-0.982789 0.34158,-2.087211 0.0725,-1.892997 0.0422,-2.018899 -0.52917,-2.198316 -1.26222,-0.396375 -3.40049,-1.997879 -4.29431,-3.216341 -1.24306,-1.694531 -1.80474,-3.675749 -1.66501,-5.873543 0.14538,-2.286838 0.28071,-2.742665 1.2764,-4.294312 0.87935,-1.370352 2.42894,-2.77187 3.87832,-3.507796 0.47294,-0.24014 0.8599,-0.493984 0.8599,-0.564307 0,-0.05274 -0.90255,-0.08946 -2.18127,-0.09612 z m -7.16183,0.01499 c -0.30272,-0.0026 -0.65103,0.0023 -1.0418,0.01447 l -2.4474,0.07596 -0.6196,1.24902 c -2.29817,4.632462 -2.14271,10.737774 0.40308,15.816605 1.33077,2.654881 4.70864,6.062921 7.41763,7.484298 1.52739,0.801394 4.90218,1.94843 5.96191,2.026233 0.10914,0.008 0.19844,-0.922586 0.19844,-2.067574 v -2.081527 l -1.5353,-0.430981 c -4.09657,-1.149438 -7.81678,-4.66268 -9.14312,-8.634615 -0.9612,-2.878517 -1.09599,-4.347766 -0.62528,-6.810954 0.42638,-2.231236 2.08953,-6.15363 2.60914,-6.15363 0.12558,0 0.2279,-0.12342 0.2279,-0.274402 0,-0.131492 -0.49746,-0.205021 -1.4056,-0.212907 z m 23.44818,0.02377 c -4.85628,0.0098 -8.28425,0.06792 -8.28425,0.152445 0,0.112694 0.39548,0.347785 0.8785,0.522449 0.48302,0.174663 1.36396,0.733292 1.95802,1.241785 4.98312,4.265372 3.96839,12.424145 -1.88774,15.176851 l -1.21336,0.570508 v 1.938899 c 0,1.066404 0.0639,2.002871 0.14211,2.08101 0.1906,0.190603 1.96617,-0.435663 3.6406,-1.284159 2.64651,-1.341083 5.73529,-5.191028 6.4425,-8.030001 0.53327,-2.140721 0.3904,-5.841808 -0.31367,-8.132837 l -0.18191,-0.591695 9.22425,-0.06976 c 8.01865,-0.06051 9.21771,-0.121117 9.1736,-0.466121 -0.0279,-0.218282 -0.21403,-0.99219 -0.41393,-1.719792 l -0.3638,-1.322917 -13.54233,-0.05994 c -1.8621,-0.0082 -3.63983,-0.01 -5.25859,-0.0067 z m -16.3866,0.7059 -1.19372,1.050582 c -2.43227,2.140962 -3.69103,5.703539 -3.09594,8.761222 0.58173,2.989042 2.73896,5.879508 5.22397,7.000089 0.85109,0.383791 1.08729,0.635849 1.10329,1.176156 0.0112,0.378081 0.041,1.074241 0.0661,1.547192 0.0252,0.472953 -0.0767,0.859906 -0.22634,0.859896 -0.14962,-1.1e-5 -1.12713,-0.409808 -2.17196,-0.910538 -3.23717,-1.551367 -5.34882,-3.958032 -6.59443,-7.515304 -1.15663,-3.303129 -0.61778,-7.65975 1.30328,-10.534241 l 0.85576,-1.280542 2.36523,-0.07751 z m 10.53217,0.02222 h 12.12898 c 11.32568,0 12.13707,0.03066 12.25765,0.46302 0.071,0.254662 0.20613,0.730912 0.30024,1.058334 l 0.17105,0.595312 h -9.41028 c -5.17578,0 -9.41079,0.0335 -9.41079,0.07493 0,0.04142 0.25838,0.785566 0.57412,1.653646 0.72987,2.006689 0.87257,5.695605 0.29559,7.64036 -1.17125,3.947845 -3.77869,6.766078 -7.81503,8.44703 l -0.99218,0.412895 v -1.561145 c 0,-1.52126 0.0241,-1.572893 0.91622,-1.996261 1.31559,-0.624285 3.47532,-2.846231 4.3155,-4.439522 0.65314,-1.238602 0.7214,-1.632254 0.7214,-4.146517 0,-2.541295 -0.0641,-2.902182 -0.75654,-4.233333 -0.41632,-0.800365 -1.32857,-2.020757 -2.02675,-2.71198 z m 7.90081,3.696932 0.19276,0.863513 c 0.3894,1.746352 0.21635,6.344806 -0.29921,7.953519 -1.26294,3.940709 -5.05836,7.606634 -9.0997,8.789645 l -1.38906,0.406693 v 1.977141 c 0,1.897172 0.0251,1.97714 0.62011,1.97714 0.34102,0 1.26465,-0.221566 2.05207,-0.492476 0.78742,-0.270912 2.15618,-0.858602 3.0422,-1.305864 1.73854,-0.877621 5.29951,-4.033485 6.20582,-5.499923 l 0.55862,-0.90382 h 4.97334 4.97334 l 0.27905,-0.727605 c 0.15342,-0.400181 0.33676,-0.965731 0.40773,-1.25677 0.071,-0.291042 0.20613,-0.797058 0.30024,-1.12448 l 0.17105,-0.595312 h -6.60735 c -6.47736,0 -6.60502,-0.01042 -6.46937,-0.529167 0.13359,-0.510831 0.36114,-0.529166 6.56135,-0.529166 h 6.42235 l 0.14625,-0.595313 c 0.0804,-0.327422 0.22797,-1.220392 0.32762,-1.984375 l 0.18087,-1.389062 h -4.53202 -4.53202 v -0.661459 -0.661458 h 6.83369 6.83317 l -0.43511,-1.785938 -0.43564,-1.785937 -8.64081,-0.06976 z" />
  </g>
</svg>
