<?xml version="1.0" encoding="UTF-8" standalone="no"?>
<!-- Created with Inkscape (http://www.inkscape.org/) -->

<svg
   width="46.817677mm"
   height="46.817677mm"
   viewBox="0 0 46.817677 46.817676"
   version="1.1"
   id="svg5"
   inkscape:version="1.2-alpha1 (b6a15bb, 2022-02-23)"
   sodipodi:docname="pablo-logo.svg"
   inkscape:export-filename="/Users/pabloduran/Developer/PortfolioPablo/assets/images/pablo-logo.png"
   inkscape:export-xdpi="162.75903"
   inkscape:export-ydpi="162.75903"
   xmlns:inkscape="http://www.inkscape.org/namespaces/inkscape"
   xmlns:sodipodi="http://sodipodi.sourceforge.net/DTD/sodipodi-0.dtd"
   xmlns:xlink="http://www.w3.org/1999/xlink"
   xmlns="http://www.w3.org/2000/svg"
   xmlns:svg="http://www.w3.org/2000/svg">
  <sodipodi:namedview
     id="namedview7"
     pagecolor="#505050"
     bordercolor="#ffffff"
     borderopacity="1"
     inkscape:pageshadow="0"
     inkscape:pageopacity="0"
     inkscape:pagecheckerboard="1"
     inkscape:deskcolor="#505050"
     inkscape:document-units="mm"
     showgrid="false"
     inkscape:zoom="3.1251996"
     inkscape:cx="45.757078"
     inkscape:cy="103.3534"
     inkscape:window-width="1512"
     inkscape:window-height="916"
     inkscape:window-x="1688"
     inkscape:window-y="48"
     inkscape:window-maximized="0"
     inkscape:current-layer="layer1" />
  <defs
     id="defs2">
    <pattern
       inkscape:collect="always"
       xlink:href="#Strips1_10white"
       id="pattern33129"
       patternTransform="scale(10)" />
    <pattern
       inkscape:collect="always"
       patternUnits="userSpaceOnUse"
       width="11"
       height="1"
       patternTransform="translate(0,0) scale(10,10)"
       id="Strips1_10white"
       inkscape:stockid="Stripes 1:10 white">
      <rect
         style="fill:white;stroke:none"
         x="0"
         y="-0.5"
         width="1"
         height="2"
         id="rect16155" />
    </pattern>
    <linearGradient
       inkscape:collect="always"
       id="linearGradient14910">
      <stop
         style="stop-color:#126262;stop-opacity:0;"
         offset="0.85209"
         id="stop14908" />
      <stop
         style="stop-color:#126262;stop-opacity:1;"
         offset="1"
         id="stop14906" />
    </linearGradient>
    <radialGradient
       inkscape:collect="always"
       xlink:href="#linearGradient14910"
       id="radialGradient14912"
       cx="76.837471"
       cy="61.80862"
       fx="76.837471"
       fy="61.80862"
       r="21.630951"
       gradientTransform="matrix(1,0,0,1.0117417,0,-0.73245305)"
       gradientUnits="userSpaceOnUse" />
  </defs>
  <g
     inkscape:label="Layer 1"
     inkscape:groupmode="layer"
     id="layer1"
     transform="translate(-53.428634,-38.393066)">
    <text
       xml:space="preserve"
       style="font-style:normal;font-variant:normal;font-weight:normal;font-stretch:normal;font-size:50.8px;line-height:1.25;font-family:'Times New Roman';-inkscape-font-specification:'Times New Roman, ';white-space:pre;inline-size:34.0241;stroke-width:0.264583"
       x="59.008492"
       y="77.766159"
       id="text392-3"
       transform="translate(50.825177,9.7834528)"><tspan
         x="59.008492"
         y="77.766159"
         id="tspan33851">D</tspan></text>
    <text
       xml:space="preserve"
       style="font-size:4.9389px;line-height:1.25;font-family:sans-serif;stroke-width:0.264583"
       x="103.55795"
       y="116.06306"
       id="text1674"><tspan
         sodipodi:role="line"
         id="tspan1672"
         x="103.55795"
         y="116.06306"
         style="stroke-width:0.264583" /></text>
    <rect
       style="fill:#ffffff;fill-opacity:1;stroke:#000000;stroke-width:0;stroke-miterlimit:4;stroke-dasharray:none;stroke-opacity:0.598338"
       id="rect28553"
       width="46.817677"
       height="46.817677"
       x="53.428635"
       y="38.393066" />
    <circle
       style="fill:url(#pattern33129);fill-opacity:1;stroke:none;stroke-width:0;stroke-miterlimit:4;stroke-dasharray:none;stroke-opacity:0.598338"
       id="path11789"
       cx="76.837471"
       cy="61.801907"
       r="19.556749" />
    <ellipse
       style="fill:url(#radialGradient14912);fill-opacity:1;stroke:none;stroke-width:0;stroke-miterlimit:4;stroke-dasharray:none;stroke-opacity:0.598338"
       id="path13399"
       cx="76.837471"
       cy="61.801907"
       rx="21.630951"
       ry="21.884935" />
    <g
       aria-label="P"
       id="text392"
       style="font-size:50.8px;line-height:1.25;font-family:'Times New Roman';-inkscape-font-specification:'Times New Roman, ';white-space:pre;inline-size:34.0241;fill:#008080;stroke:none;stroke-width:0.264583;stroke-opacity:0.598338"
       transform="translate(4.174678,0.85332559)">
      <path
         d="m 69.425781,62.015183 v 9.797851 q 0,3.175 0.694531,3.943945 0.942578,1.091407 2.852539,1.091407 h 1.289844 v 0.917773 H 59.851172 v -0.917773 h 1.265039 q 2.133203,0 3.050976,-1.389063 0.496094,-0.768945 0.496094,-3.646289 V 50.084128 q 0,-3.175 -0.669726,-3.943945 -0.967383,-1.091406 -2.877344,-1.091406 h -1.265039 v -0.917774 h 12.327929 q 4.514453,0 7.118946,0.942578 2.604492,0.917774 4.390429,3.125391 1.785938,2.207617 1.785938,5.233789 0,4.117578 -2.728516,6.697266 -2.703711,2.579687 -7.664648,2.579687 -1.21543,0 -2.629297,-0.173633 -1.413867,-0.173633 -3.026172,-0.520898 z m 0,-1.413867 q 1.314649,0.248046 2.331641,0.37207 1.016992,0.124023 1.736328,0.124023 2.579687,0 4.440039,-1.984375 1.885156,-2.009179 1.885156,-5.184179 0,-2.182813 -0.892969,-4.043164 -0.892968,-1.885156 -2.530078,-2.80293 -1.637109,-0.942578 -3.720703,-0.942578 -1.265039,0 -3.249414,0.471289 z"
         id="path4382"
         style="fill:#008080;stroke:none;stroke-opacity:0.598338" />
    </g>
    <path
       d="m 59.895871,78.619485 v -0.917774 h 1.26504 q 2.1332,0 3.02617,-1.364258 0.5457,-0.818554 0.5457,-3.671093 V 50.937454 q 0,-3.150195 -0.69453,-3.943945 -0.96738,-1.091407 -2.87734,-1.091407 h -1.26504 v -0.917773 h 13.69218 q 7.54063,0 11.45977,1.711523 3.94395,1.711524 6.3252,5.705078 2.40605,3.993555 2.40605,9.227344 0,7.019726 -4.26641,11.732617 -4.7873,5.258594 -14.58515,5.258594 z m 9.59941,-2.43086 q 3.1502,0.694532 5.2834,0.694532 5.75469,0 9.5498,-4.043164 3.79512,-4.043165 3.79512,-10.963672 0,-6.970117 -3.79512,-10.988477 -3.79511,-4.018359 -9.74824,-4.018359 -2.23242,0 -5.08496,0.719336 z"
       style="font-size:50.8px;line-height:1.25;font-family:'Times New Roman';-inkscape-font-specification:'Times New Roman, ';fill:#008080;stroke:none;stroke-width:0.264583;stroke-opacity:0.598338"
       id="path5005" />
    <path
       d="m 59.895871,78.619485 v -0.917774 h 1.26504 c 1.422133,0 2.430857,-0.454753 3.02617,-1.364258 0.3638,-0.545703 0.5457,-1.7694 0.5457,-3.671093 V 50.937454 c 0,-2.10013 -0.23151,-3.414778 -0.69453,-3.943945 -0.64492,-0.727605 -1.604033,-1.091407 -2.87734,-1.091407 h -1.26504 v -0.917773 h 13.69218 c 5.027087,0 8.84701,0.570508 11.45977,1.711523 2.6293,1.141016 4.7377,3.042709 6.3252,5.705078 1.604033,2.66237 2.40605,5.738151 2.40605,9.227344 0,4.679817 -1.422137,8.59069 -4.26641,11.732617 -3.191533,3.505729 -8.05325,5.258594 -14.58515,5.258594 z"
       style="font-size:50.8px;line-height:1.25;font-family:'Times New Roman';-inkscape-font-specification:'Times New Roman, ';fill:none;stroke:#000000;stroke-width:0.264583;stroke-opacity:0.598338"
       id="path18211"
       sodipodi:nodetypes="ccscsscsccsccscsc" />
  </g>
</svg>
